<?xml version="1.0" encoding="UTF-8" standalone="no"?>
<!-- Created with Inkscape (http://www.inkscape.org/) -->

<svg
   version="1.1"
   id="svg2"
   width="1024"
   height="1024"
   viewBox="0 0 1024 1024"
   sodipodi:docname="Nexum-chat.svg"
   inkscape:version="1.1.2 (0a00cf5339, 2022-02-04)"
   xmlns:inkscape="http://www.inkscape.org/namespaces/inkscape"
   xmlns:sodipodi="http://sodipodi.sourceforge.net/DTD/sodipodi-0.dtd"
   xmlns="http://www.w3.org/2000/svg"
   xmlns:svg="http://www.w3.org/2000/svg">
  <defs
     id="defs6" />
  <sodipodi:namedview
     id="namedview4"
     pagecolor="#505050"
     bordercolor="#eeeeee"
     borderopacity="1"
     inkscape:pageshadow="0"
     inkscape:pageopacity="0"
     inkscape:pagecheckerboard="0"
     showgrid="false"
     inkscape:zoom="0.45996094"
     inkscape:cx="1096.8323"
     inkscape:cy="512"
     inkscape:window-width="1366"
     inkscape:window-height="705"
     inkscape:window-x="0"
     inkscape:window-y="0"
     inkscape:window-maximized="1"
     inkscape:current-layer="g8" />
  <g
     inkscape:groupmode="layer"
     inkscape:label="Image"
     id="g8">
    <path
       style="fill:#0000ff"
       d="m 736.33331,803.7151 c -6.0273,-1.75879 -8.3198,-3.01203 -25.1073,-13.7253 -7.916,-5.05172 -34.1927,-21.79725 -58.3927,-37.21227 -24.2,-15.41503 -46.4356,-29.64095 -49.4124,-31.61315 l -5.4125,-3.58582 -115.0875,-0.57647 c -126.6417,-0.63435 -117.6169,-0.17932 -137.8229,-6.94898 -53.3347,-17.86877 -89.9672,-64.97059 -94.8631,-121.97455 -1.5372,-17.89737 -0.6162,-329.0588 0.993,-335.5 0.687,-2.75 1.4716,-6.35 1.7435,-8 0.9513,-5.77269 7.5437,-24.07026 11.5293,-32 7.186,-14.29729 14.6321,-24.48079 26.7423,-36.57372 17.224,-17.19939 34.6863,-28.16576 56.4414,-35.44548 22.1623,-7.41597 8.875,-6.9808 213.1489,-6.9808 145.5582,0 184.7391,0.26715 191.5,1.30572 26.9995,4.14749 50.3944,14.68967 71,31.99396 10.7701,9.04456 16.3603,15.24641 24.4451,27.11967 12.7906,18.78423 21.3909,41.20777 24.3856,63.58065 0.9049,6.75972 0.8581,325.76677 -0.049,336.5 -3.8748,45.83423 -37.1162,91.34057 -80.7814,110.58703 l -9.5,4.18735 -0.5,35.86281 c -0.4897,35.12266 -0.5492,35.97177 -2.8858,41.14224 -3.041,6.72923 -10.4478,13.45067 -17.9125,16.2551 -7.0238,2.63874 -18.1296,3.37388 -24.2017,1.60201 z m -12.6942,-149.22436 c 2.4251,-2.08491 3.8214,-2.41218 10.2921,-2.41218 35.9629,0 66.4674,-25.50536 72.3582,-60.5 0.8811,-5.23415 1.0914,-48.11901 0.8337,-170 -0.3871,-182.98733 0.3011,-167.08674 -7.8934,-182.38075 -9.4266,-17.59356 -24.0708,-30.07705 -43.0629,-36.70917 l -8.3335,-2.91008 -182.5,-0.27763 c -205.1099,-0.31202 -190.7069,-0.81332 -207.5,7.22217 -19.4523,9.30798 -32.9157,25.12579 -39.656,46.5907 l -2.344,7.46476 v 166.5 166.5 l 2.6173,7.66665 c 9.027,26.44161 29.2217,44.21636 56.0099,49.298 6.9785,1.32379 23.7005,1.53535 121.3576,1.53535 96.7445,0 113.8673,0.21294 117.4019,1.46003 2.276,0.80301 14.5951,8.15703 27.3758,16.34227 30.9525,19.82322 74.7447,47.58004 77.2375,48.9555 1.9765,1.09058 2.0059,0.73326 2.5,-30.41495 l 0.5,-31.51848 z m -317.8046,-63.45809 c -1.6494,-0.50282 -3.5619,-1.6842 -4.25,-2.62529 -0.989,-1.35246 -1.2512,-34.55922 -1.2512,-158.44735 V 273.22372 l 2.7326,-2.14944 c 2.6527,-2.08659 3.4201,-2.13875 26.25,-1.78422 21.6299,0.3359 23.9769,0.54774 29.2422,2.63927 9.1336,3.62814 16.3218,9.70432 32.2187,27.23452 8.187,9.02809 20.0989,22.02827 26.471,28.88928 6.372,6.86101 13.8249,14.96101 16.562,18 2.737,3.03899 8.3717,9.12543 12.5215,13.52543 4.1498,4.4 18.1104,19.46133 31.0236,33.46962 12.9131,14.00828 33.1534,35.7754 44.9784,48.37136 11.825,12.59597 21.8599,23.52214 22.2997,24.28039 0.4398,0.75825 1.2273,1.37863 1.75,1.37863 0.594,0 0.9503,-36.67587 0.9503,-97.8 0,-74.73333 0.2831,-98.08303 1.2,-99 0.8868,-0.88675 10.1657,-1.2 35.5455,-1.2 h 34.3454 l 2.4546,2.45455 2.4545,2.45454 v 156.39047 c 0,149.387 -0.081,156.46349 -1.8018,158.0211 -1.5661,1.41733 -5.7193,1.66652 -31.75,1.90498 -41.206,0.37749 -38.497,1.62749 -68.9482,-31.81425 -10.45,-11.47628 -27.1,-29.65368 -37,-40.39422 -9.9,-10.74054 -22.9064,-24.92576 -28.9032,-31.52271 -5.9968,-6.59695 -13.9139,-15.14446 -17.5934,-18.99446 -3.6796,-3.85 -11.5981,-12.42097 -17.5968,-19.04659 -19.9769,-22.065 -42.8571,-46.45341 -43.5806,-46.45341 -0.3931,0 -0.7441,41.95083 -0.7801,93.22406 -0.058,82.14377 -0.2466,93.40542 -1.5901,94.75 -1.2945,1.29564 -6.3113,1.55373 -33.2402,1.7101 -17.4436,0.10129 -33.0651,-0.22724 -34.7144,-0.73007 z"
       id="path225" />
  </g>
</svg>
