<?xml version="1.0" encoding="UTF-8" standalone="no"?>
<!-- Created with Inkscape (http://www.inkscape.org/) -->

<svg
   version="1.1"
   id="svg2"
   width="1024"
   height="1024"
   viewBox="0 0 1024 1024"
   sodipodi:docname="nexum_logo.svg"
   inkscape:version="1.1.2 (0a00cf5339, 2022-02-04)"
   xmlns:inkscape="http://www.inkscape.org/namespaces/inkscape"
   xmlns:sodipodi="http://sodipodi.sourceforge.net/DTD/sodipodi-0.dtd"
   xmlns="http://www.w3.org/2000/svg"
   xmlns:svg="http://www.w3.org/2000/svg">
  <defs
     id="defs6" />
  <sodipodi:namedview
     id="namedview4"
     pagecolor="#505050"
     bordercolor="#eeeeee"
     borderopacity="1"
     inkscape:pageshadow="0"
     inkscape:pageopacity="0"
     inkscape:pagecheckerboard="0"
     showgrid="false"
     inkscape:zoom="0.66733899"
     inkscape:cx="443.55268"
     inkscape:cy="463.78228"
     inkscape:window-width="1366"
     inkscape:window-height="705"
     inkscape:window-x="0"
     inkscape:window-y="0"
     inkscape:window-maximized="1"
     inkscape:current-layer="g8" />
  <g
     inkscape:groupmode="layer"
     inkscape:label="Image"
     id="g8">
    <path
       style="fill:#0000ff;opacity:0.99"
       d="m 399.2438,505.7543 c -15.9001,-1.87502 -28.6782,-13.46917 -32.9441,-29.89159 -3.6996,-14.24258 -1.3041,-31.66807 6.3827,-46.43028 5.5549,-10.66779 18.2448,-22.98673 29.2253,-28.37099 17.6093,-8.63468 37.6619,-9.4888 51.9261,-2.21175 5.943,3.03187 7.1438,4.64379 6.6002,8.85944 -0.2608,2.02303 -0.7548,8.09028 -1.0977,13.48279 l -0.6235,9.80456 -3.5076,-0.30456 -3.5077,-0.30456 -2.7348,-10.93467 c -2.3946,-9.57418 -3.1491,-11.28051 -6.0644,-13.71428 -4.6185,-3.85572 -12.2869,-5.34004 -19.7406,-3.82106 -20.6744,4.21319 -34.6885,25.24422 -35.9632,53.97001 -0.4468,10.06775 -0.2358,12.30875 1.6941,17.99374 3.3795,9.95481 9.5608,17.24555 17.3976,20.51994 4.6526,1.94401 14.0684,1.89409 19.9375,-0.10571 5.4337,-1.85143 13.4247,-8.68115 17.8872,-15.28769 1.7165,-2.54115 3.2148,-4.74963 3.3296,-4.90772 0.3615,-0.49787 5.4672,2.07662 5.4672,2.75678 0,0.35658 -1.5789,3.32184 -3.5087,6.58949 -9.6527,16.34468 -28.7385,24.83368 -50.1552,22.30811 z m 113.4532,-0.92501 c -0.9408,-0.54849 -2.1427,-2.5622 -2.6708,-4.47492 -1.1053,-4.00277 0.2971,-11.7893 7.0547,-39.17023 4.9316,-19.98233 4.7935,-22.58498 -1.2258,-23.09429 -6.938,-0.58704 -17.932,10.64276 -26.2347,26.79751 -3.546,6.89949 -4.8918,11.15757 -7.1474,22.6138 -1.5284,7.76259 -3.0756,14.59372 -3.4381,15.18028 -0.3652,0.59099 -4.4416,1.15848 -9.1432,1.27284 -7.8297,0.19045 -8.4567,0.0609 -8.1295,-1.68028 0.1949,-1.03765 3.7059,-16.73664 7.8022,-34.88664 12.2057,-54.0819 14.5992,-66.67265 12.9819,-68.28993 -1.0883,-1.08827 -2.1891,-1.15084 -5.2575,-0.29885 -5.5546,1.54228 -7.0778,1.3569 -7.6769,-0.93439 -0.4121,-1.57555 0.207,-2.33072 2.798,-3.41332 4.5166,-1.88714 30.808,-6.65324 31.7125,-5.74882 0.3982,0.39821 -1.0863,8.1403 -3.2989,17.20466 -4.9013,20.0795 -10.9158,45.85726 -10.9158,46.78443 0,0.37375 1.809,-2.08909 4.02,-5.47297 5.0778,-7.7713 14.9047,-16.92109 21.4435,-19.96599 9.0637,-4.2206 18.7976,-2.62811 22.0195,3.60245 2.5289,4.89033 1.7515,12.17154 -3.5575,33.31928 -6.0884,24.25259 -6.8672,28.18973 -5.8894,29.77192 1.077,1.74266 4.8948,0.52568 10.7843,-3.43766 4.9508,-3.33164 6.1796,-3.23957 6.1796,0.46305 0,1.39357 -11.8315,9.87321 -17.5,12.5423 -5.199,2.44799 -11.7616,3.03498 -14.7107,1.31577 z m 48.0692,-1.09943 c -16.9183,-9.81032 -8.1674,-49.86846 15.1496,-69.34929 6.7886,-5.67171 14.2437,-8.74557 22.4953,-9.27512 6.5532,-0.42056 7.854,-0.18933 12.0137,2.13559 3.8202,2.13517 4.8995,2.37257 5.9609,1.31119 1.4468,-1.44688 12.363,-4.15717 13.2343,-3.28586 0.3064,0.30644 -0.8764,6.75903 -2.6284,14.33908 -10.6805,46.20693 -11.7484,51.86713 -10.2195,54.16726 1.3266,1.99573 4.9525,0.79836 10.569,-3.49016 3.7993,-2.90099 4.968,-3.37068 5.6618,-2.27538 1.3777,2.17531 1.217,2.44197 -4.5969,7.62379 -6.8297,6.08724 -13.4185,9.44623 -19.7161,10.05134 -8.7019,0.83615 -10.9426,-3.78966 -8.3436,-17.22528 0.8437,-4.36169 1.3698,-8.09452 1.1692,-8.29518 -0.2007,-0.20065 -1.5552,1.66644 -3.0102,4.1491 -4.1511,7.08332 -13.1718,16.18531 -18.8402,19.01001 -6.5391,3.25855 -13.7168,3.41385 -18.8989,0.40891 z m 27.129,-16.67588 c 3.5818,-3.75836 8.0422,-9.4037 9.9119,-12.54519 4.0155,-6.74691 9.9427,-23.49296 10.7611,-30.40331 0.5312,-4.4852 0.311,-5.18094 -2.74,-8.65582 -3.1443,-3.58117 -3.5706,-3.7543 -8.1585,-3.31346 -9.0985,0.87425 -18.1669,11.55285 -23.4163,27.57402 -2.4017,7.33003 -2.8433,10.32898 -2.8444,19.31715 -10e-4,12.1362 1.2616,14.85999 6.8911,14.85999 2.5073,0 4.2979,-1.27525 9.5951,-6.83338 z m 63.2023,16.80775 c -3.9178,-2.38861 -6.1985,-7.26721 -6.1673,-13.19225 0.012,-2.35517 2.657,-15.90503 5.8768,-30.11081 4.57,-20.16302 5.5632,-25.94032 4.528,-26.33757 -0.7294,-0.27988 -4.2938,-0.35697 -7.9211,-0.17131 -6.4327,0.32927 -6.5877,0.27933 -6.3006,-2.03037 0.2376,-1.91143 1.5052,-2.80503 6.5749,-4.63517 3.4543,-1.24698 8.1022,-3.5296 10.3286,-5.0725 4.5086,-3.12449 11.8604,-10.95021 15.6645,-16.67439 2.5179,-3.78874 3.7028,-4.36932 5.974,-2.92712 1.1778,0.74789 0.5214,5.14627 -3.267,21.89202 -0.488,2.15704 -0.2426,2.22236 9.3925,2.5 l 9.8936,0.2851 -1.1412,3.5 -1.1412,3.5 -9.7688,-0.008 -9.7688,-0.008 -1.0802,4.00797 c -4.8272,17.91057 -10.4744,49.94986 -9.4932,53.85947 1.4653,5.83794 8.2833,4.37192 17.2661,-3.71253 l 5.1394,-4.62546 1.5811,2.41313 c 1.5388,2.34852 1.4377,2.55897 -3.7798,7.86043 -10.3768,10.54389 -24.2029,14.67902 -32.3903,9.6873 z M 167.6576,491.80725 c -4.4146,-2.57131 -5.2254,-6.43752 -5.7499,-27.41989 l -0.5,-20 -10.0094,-0.60908 c -24.0332,-1.46245 -37.0351,-10.15705 -42.4558,-28.39092 -1.5421,-5.18725 -2.5174,-112.7749 -1.102,-121.56382 0.5335,-3.31232 1.9951,-8.07521 3.2482,-10.58419 3.1525,-6.31224 12.4665,-14.66443 19.5344,-17.5172 l 5.7846,-2.33479 78,-0.29417 c 82.5286,-0.31124 86.5031,-0.13349 96.2682,4.30544 6.4892,2.94979 15.0418,11.35229 18.1792,17.86014 3.3947,7.04148 3.8363,15.01353 4.2165,76.12859 l 0.3361,54 -3.1744,6.70071 c -3.8938,8.21914 -10.0277,14.5246 -17.8801,18.38008 l -5.9455,2.91921 -29,0.5 c -21.7462,0.37493 -29.593,0.83762 -31.3707,1.84975 -1.3038,0.74237 -8.9538,6.16668 -17,12.05404 -17.1354,12.53797 -41.5654,29.64019 -46.8963,32.82976 -4.0043,2.39587 -11.3705,2.99925 -14.4831,1.18634 z m 35.2501,-48.59213 c 20.2674,-15.0546 31.3667,-22.94996 34.5972,-24.61035 2.2813,-1.17248 8.8551,-1.60977 30.7039,-2.04246 30.7153,-0.60827 31.8748,-0.84446 36.287,-7.3918 2.8464,-4.22378 3.3493,-17.73041 2.5424,-68.28315 -0.6274,-39.30475 -0.6421,-39.51618 -2.9647,-42.77264 -1.2839,-1.79995 -4.0144,-4.12978 -6.0679,-5.1774 -3.54,-1.80597 -7.5165,-1.93263 -76.6658,-2.44214 -44.4895,-0.32781 -74.3108,-0.16866 -76.4672,0.40808 -3.9988,1.06947 -9.3182,6.09395 -10.9036,10.2992 -0.6965,1.84733 -1.0613,19.90874 -1.0613,52.53811 0,49.5759 0.01,49.73621 2.25,54.1849 1.7238,3.41845 3.4192,5.04517 7.25,6.95606 4.5572,2.27329 6.4699,2.53896 21.5985,3 12.7144,0.38746 17.0213,0.85684 18.4049,2.00583 3.5698,2.9644 4.4966,7.41415 4.4966,21.59033 0,10.76081 0.2649,13.45436 1.25,12.70988 0.6875,-0.51957 7.325,-5.45717 14.75,-10.97245 z m -35.1272,-77.01147 c -8.0332,-4.98556 -7.9767,-18.62562 0.094,-22.79936 4.3043,-2.22585 11.2096,-1.9522 14.4178,0.57137 5.3582,4.21472 6.8401,10.04363 4.1751,16.42192 -2.7503,6.58236 -12.5371,9.62307 -18.6874,5.80607 z m 46.1572,0.4044 c -3.8025,-1.92408 -7.03,-7.43361 -7.03,-12.00054 0,-6.92418 4.7809,-12.24043 11.5,-12.78759 4.7781,-0.38911 6.7411,0.26146 10.1132,3.35179 6.4941,5.95145 5.5496,16.20668 -1.9118,20.75613 -3.6483,2.22454 -9.0467,2.51432 -12.6714,0.68021 z m 43.8632,-0.2176 c -5.3273,-2.89554 -7.8278,-10.22406 -5.619,-16.46846 2.6344,-7.44774 12.8751,-10.41992 19.8279,-5.7547 10.3758,6.96204 4.9725,23.79041 -7.6021,23.67629 -2.2,-0.02 -5.1731,-0.67387 -6.6068,-1.45313 z m 177.5402,-18.21617 c -7.5672,-14.18281 -17.9585,-33.43692 -23.0918,-42.78692 -5.1332,-9.35 -9.4985,-17.45 -9.7005,-18 -0.774,-2.10702 -1.5239,0.43389 -3.9844,13.5 -1.3982,7.425 -4.161,21.825 -6.1395,32 -1.9786,10.175 -3.8583,20.99067 -4.1773,24.03482 -0.5465,5.21653 -0.4333,5.60161 1.9688,6.69607 1.4017,0.63868 5.2997,1.72947 8.6621,2.42397 5.2566,1.08573 6.0726,1.54883 5.8214,3.30393 -0.2187,1.52745 -1.1732,2.12854 -3.7922,2.38818 -5.9437,0.58922 -40,-1.0148 -40,-1.88396 0,-1.94928 3.2243,-3.73511 7.8522,-4.34902 9.2088,-1.22159 8.4985,0.59443 17.6818,-45.20776 4.829,-24.08445 8.0034,-42.24582 7.7193,-44.16377 -0.6513,-4.3966 -4.9602,-7.80964 -11.7891,-9.33787 -4.5984,-1.02909 -5.5075,-1.57802 -5.2615,-3.17713 0.2807,-1.82515 1.1907,-1.92479 16.2935,-1.78408 8.7979,0.082 16.295,0.46574 16.6603,0.85283 0.6713,0.71138 2.3649,3.85509 28.5501,52.9957 7.9986,15.01055 14.7485,27.08632 14.9997,26.83504 1.4663,-1.46628 13.8556,-68.7202 13.0474,-70.82631 -0.2908,-0.75788 -3.9544,-2.4523 -8.1413,-3.76536 -4.1868,-1.31307 -7.6124,-2.72137 -7.6124,-3.12955 0,-3.27315 0.927,-3.40704 21.5742,-3.11598 20.3458,0.28681 20.5513,0.31143 20.2401,2.42558 -0.2523,1.71418 -1.4001,2.35717 -5.8143,3.25707 -6.9664,1.42019 -9.8316,3.00065 -10.5266,5.80646 -0.3026,1.22163 -2.7236,13.69614 -5.38,27.72114 -12.473,65.85338 -13.4213,70.17506 -15.5741,70.97892 -6.6537,2.4845 -5.2124,4.18462 -20.0859,-23.692 z m 227.0666,24.7309 c -5.2179,-1.16624 -7.2775,-2.8682 -9.0328,-7.46445 -2.1191,-5.54887 -1.8695,-7.462 4.6387,-35.54349 2.7393,-11.81956 4.8486,-22.61956 4.6873,-24 -0.2549,-2.1821 -0.7279,-2.47535 -3.6213,-2.24548 -1.8305,0.14542 -5.07,1.10595 -7.1989,2.13452 -4.2544,2.0555 -4.973,1.84704 -4.973,-1.44244 0,-2.48281 4.1711,-4.59497 19,-9.62118 9.5568,-3.23925 13.4882,-3.05259 15.208,0.72205 1.2772,2.80309 -0.08,10.46991 -6.7843,38.31824 -4.9922,20.7371 -5.2192,23.09453 -2.4637,25.58822 5.275,4.7738 16.8816,-3.91473 24.3759,-18.24739 3.6186,-6.92048 5.6075,-13.72354 10.6616,-36.46642 1.8683,-8.40737 2.4453,-9.75 4.1902,-9.75 1.113,0 4.7318,-0.70176 8.0418,-1.55947 3.31,-0.8577 6.5844,-1.34217 7.2765,-1.0766 0.9446,0.36247 0.1561,4.92786 -3.1619,18.30947 -9.7393,39.2776 -11.5836,49.44255 -9.2343,50.8945 0.6105,0.37726 4.2705,-0.93565 8.1334,-2.91758 3.8629,-1.98194 7.4135,-3.36249 7.8901,-3.0679 1.9993,1.23563 0.5377,3.64651 -4.7055,7.76176 -11.3204,8.88499 -22.2934,12.02109 -27.4386,7.84203 -2.2467,-1.82479 -2.4743,-2.68747 -2.3356,-8.85399 0.084,-3.75772 0.6358,-8.06972 1.2252,-9.58222 1.5656,-4.01748 -0.098,-3.36022 -2.4014,0.94888 -6.4592,12.08234 -22.094,21.52798 -31.9774,19.31894 z m -165,-2.34346 c -9.6299,-4.64097 -13.6,-11.93073 -13.6,-24.97171 0,-27.42162 21.3419,-53.12118 45.2639,-54.506 6.5209,-0.37748 8.4017,-0.10123 12.3613,1.81557 5.8436,2.82883 8.4661,6.93937 8.471,13.27762 0.011,13.54318 -14.4769,24.85699 -37.9962,29.67275 l -8.5,1.74044 -0.3127,4.84025 c -0.6312,9.77296 4.3916,17.31679 12.1088,18.18663 5.3409,0.60199 9.596,-1.21912 18.3834,-7.86764 6.1303,-4.6382 6.194,-4.65951 7.9904,-2.67446 1.774,1.96026 1.6482,2.15767 -6.1795,9.69653 -10.1309,9.75699 -15.5209,12.48306 -25.4904,12.89203 -6.2771,0.2575 -8.3153,-0.0852 -12.5,-2.10201 z m 20.3406,-42.71887 c 8.8256,-3.89807 15.0904,-12.24091 15.1374,-20.15844 0.043,-7.30476 -3.497,-10.88754 -9.3156,-9.42719 -6.0401,1.51598 -12.6099,10.17324 -17.0291,22.43974 -3.6919,10.24783 -3.6222,10.59779 1.9573,9.83303 2.5248,-0.34606 6.6873,-1.55528 9.25,-2.68714 z m 33.0474,43.54487 c -3.0949,-1.68208 -5.3398,-6.50173 -4.403,-9.45328 0.3667,-1.1552 1.7941,-2.83911 3.1721,-3.74202 2.332,-1.52797 2.8457,-1.51932 7.4185,0.12501 l 4.9129,1.76668 4.4112,-2.58514 c 5.1017,-2.98976 8.4605,-6.98687 15.1643,-18.04594 l 4.8096,-7.93433 -4.8085,-14.29419 c -2.6446,-7.8618 -5.4193,-14.80115 -6.1659,-15.42077 -1.6344,-1.35642 -5.9843,-0.0601 -10.4366,3.11025 -2.9664,2.11223 -4.9626,1.94397 -4.9626,-0.41828 0,-2.485 11.5137,-10.41108 18.2534,-12.56577 8.6967,-2.7803 13.2279,0.8941 17.7161,14.36595 1.7898,5.37229 3.5759,9.39062 3.9691,8.92963 0.3932,-0.46099 2.7648,-3.76944 5.2702,-7.35211 8.3809,-11.98436 17.4823,-18.28432 24.0381,-16.63892 6.3642,1.59732 11.248,8.7711 10.1032,14.84068 -1.4751,7.82117 -6.9611,9.02002 -13.6225,2.97689 -2.3252,-2.10941 -5.0685,-4.14077 -6.0962,-4.51412 -2.5419,-0.92341 -6.9259,3.88956 -12.5521,13.78014 l -4.4206,7.77128 2.2482,7.649 c 4.6805,15.9248 11.029,28.149 14.6188,28.149 0.7413,0 4.2574,-1.99199 7.8136,-4.42663 6.2267,-4.26298 6.4885,-4.34617 7.0817,-2.25 0.4922,1.73952 -0.5205,3.22702 -5.0431,7.4072 -10.1198,9.3537 -21.5076,12.9339 -27.0276,8.49719 -2.7585,-2.21718 -6.3538,-9.55151 -9.7931,-19.97776 -1.4968,-4.5375 -3.022,-8.2492 -3.3894,-8.24821 -0.3673,9.8e-4 -1.9438,2.0215 -3.5034,4.49004 -5.7368,9.08066 -14.8047,20.0274 -18.8287,22.72992 -4.6983,3.15541 -11.4922,3.70011 -15.9477,1.27861 z m 287.1845,-1.13522 c -3.0973,-3.93765 -2.6621,-8.13971 3.4275,-33.08869 5.8688,-24.0447 6.4042,-28.22938 3.9285,-30.70502 -3.6495,-3.64951 -8.7944,-1.21427 -17.656,8.35706 -10.2374,11.05737 -13.5728,18.37431 -17.8105,39.07151 l -3.5831,17.5 -9.2691,0.28858 c -8.5086,0.2649 -9.2251,0.14183 -8.7332,-1.5 1.4224,-4.74767 13.6234,-58.67604 13.6234,-60.21539 0,-2.68981 -3.2781,-5.07319 -6.9777,-5.07319 -2.8191,0 -4.4701,1.16952 -10.9402,7.75 -10.0777,10.24949 -14.9785,19.68132 -18.0562,34.75 -1.2357,6.05 -2.9209,14.0375 -3.7448,17.75 l -1.4981,6.75 h -8.9999 c -8.8311,0 -8.9895,-0.0422 -8.4449,-2.25 0.3053,-1.2375 3.7771,-16.35442 7.7152,-33.59316 5.132,-22.46449 6.854,-31.64943 6.0791,-32.42435 -0.775,-0.77491 -2.434,-0.73337 -5.8569,0.14665 -2.6266,0.6753 -5.7881,1.48122 -7.0256,1.79092 -1.7654,0.44181 -2.25,0.1366 -2.25,-1.41692 0,-2.19084 5.4073,-4.91176 19.5008,-9.81274 14.0365,-4.8811 16.1393,-2.57491 12.6705,13.89575 -1.1643,5.52838 -1.9796,10.18888 -1.8119,10.35666 0.1678,0.16779 1.822,-2.03582 3.6759,-4.89691 4.8569,-7.49548 13.7677,-16.02055 19.9827,-19.1176 9.3593,-4.66394 19.2963,-3.16217 21.9822,3.32216 1.2416,2.99758 0.9492,11.92717 -0.6385,19.49954 -0.505,2.40823 0.2258,1.73244 3.7048,-3.42595 9.3402,-13.84875 20.8617,-22.07405 30.9202,-22.07405 6.5631,0 10.3007,1.97867 12.5026,6.61867 2.5043,5.27746 1.7323,11.08231 -5.0066,37.64576 -3.1567,12.44331 -5.4498,23.37912 -5.0957,24.3018 0.8784,2.28897 5.1359,1.35681 11.2858,-2.47097 3.438,-2.1399 4.9952,-2.64196 5.5395,-1.78597 1.3646,2.14621 0.7689,3.14708 -3.9336,6.60983 -13.4935,9.93597 -24.95,12.85679 -29.2062,7.44602 z"
       id="path30" />
  </g>
</svg>
